<svg width="139" height="38" viewBox="0 0 139 38" fill="none" xmlns="http://www.w3.org/2000/svg">
<path d="M136.79 31.6542L136.779 32.6307L137.813 32.6417L137.813 31.6544L136.79 31.6542ZM136.797 6.71627L137.82 6.71654L137.82 5.72873L136.786 5.73973L136.797 6.71627ZM131.621 1.54026L132.644 1.55018L132.654 0.563658L131.621 0.563659V1.54026ZM7.07899 1.54042L7.07899 0.563814L6.04569 0.563815L6.05618 1.55033L7.07899 1.54042ZM1.73329 6.70227L1.77698 5.72656L0.710432 5.68303L0.710431 6.70227L1.73329 6.70227ZM1.73328 31.6755L0.710413 31.6755L0.710412 32.7L1.78216 32.651L1.73328 31.6755ZM7.06486 37.0071L6.04277 36.9691L6.00136 37.9838L7.06492 37.9837L7.06486 37.0071ZM131.628 36.9999L131.628 37.9765L132.692 37.9764L132.65 36.9619L131.628 36.9999ZM137.29 31.6489L137.279 32.6254C137.552 32.6283 137.815 32.5268 138.009 32.3434C138.203 32.16 138.313 31.91 138.313 31.6492L137.29 31.6489ZM137.297 6.71808L138.32 6.71834C138.32 6.4574 138.211 6.20728 138.016 6.02377C137.822 5.84027 137.559 5.73863 137.286 5.74154L137.297 6.71808ZM132.121 1.54204L133.144 1.55196C133.147 1.29125 133.04 1.0403 132.848 0.854999C132.656 0.669702 132.394 0.565442 132.121 0.565439L132.121 1.54204ZM7.57912 1.54049L7.57913 0.56389C7.30605 0.563887 7.0443 0.668143 6.85219 0.853441C6.66007 1.03874 6.55353 1.28969 6.55631 1.55041L7.57912 1.54049ZM2.23342 6.70235L2.27711 5.72664C1.9985 5.71526 1.72711 5.81299 1.52576 5.99719C1.32441 6.18139 1.21056 6.4361 1.21056 6.70235L2.23342 6.70235ZM2.23351 31.6684L1.21064 31.6684C1.21064 31.9355 1.32523 32.191 1.52773 32.3753C1.73022 32.5596 2.00295 32.6566 2.28239 32.6439L2.23351 31.6684ZM7.56509 37L6.543 36.962C6.53217 37.2274 6.63503 37.4855 6.82788 37.677C7.02074 37.8684 7.28694 37.9766 7.56514 37.9766L7.56509 37ZM132.128 36.9946L132.128 37.9712C132.406 37.9712 132.673 37.863 132.865 37.6716C133.058 37.4802 133.161 37.222 133.15 36.9566L132.128 36.9946ZM133.846 33.8206C134.661 33.0052 135.722 32.6195 136.779 32.6307L136.801 30.6776C135.199 30.6606 133.587 31.2507 132.366 32.4718L133.846 33.8206ZM137.813 31.6544L137.82 6.71654L135.774 6.71601L135.767 31.6539L137.813 31.6544ZM136.786 5.73973C135.729 5.75097 134.668 5.36526 133.853 4.54989L132.373 5.89869C133.594 7.11979 135.206 7.70986 136.808 7.69281L136.786 5.73973ZM133.853 4.54989C133.035 3.7317 132.632 2.64778 132.644 1.55018L130.598 1.53034C130.582 3.09147 131.155 4.68041 132.373 5.89869L133.853 4.54989ZM131.621 0.563659L7.07899 0.563814L7.079 2.51702L131.621 2.51686V0.563659ZM6.05618 1.55033C6.06786 2.64794 5.66538 3.73185 4.8472 4.55003L6.32682 5.89884C7.54511 4.68055 8.11841 3.09162 8.1018 1.5305L6.05618 1.55033ZM4.8472 4.55003C4.00261 5.39462 2.88716 5.77187 1.77698 5.72656L1.68961 7.67798C3.35129 7.7458 5.05008 7.17557 6.32682 5.89884L4.8472 4.55003ZM0.710431 6.70227L0.710413 31.6755L2.75614 31.6755L2.75616 6.70227L0.710431 6.70227ZM1.78216 32.651C2.89121 32.6003 3.9996 32.9802 4.84719 33.8278L6.32681 32.479C5.05309 31.2053 3.36135 30.6234 1.68439 30.7L1.78216 32.651ZM4.84719 33.8278C5.69545 34.6761 6.08982 35.8165 6.04277 36.9691L8.08695 37.0451C8.15304 35.4258 7.59987 33.752 6.32681 32.479L4.84719 33.8278ZM7.06492 37.9837L131.628 37.9765L131.628 36.0233L7.0648 36.0305L7.06492 37.9837ZM132.65 36.9619C132.603 35.8093 132.998 34.6688 133.846 33.8206L132.366 32.4718C131.093 33.7448 130.54 35.4186 130.606 37.0379L132.65 36.9619ZM134.346 33.8153C135.161 32.9999 136.222 32.6142 137.279 32.6254L137.301 30.6724C135.699 30.6553 134.087 31.2454 132.866 32.4665L134.346 33.8153ZM138.313 31.6492L138.32 6.71834L136.274 6.71782L136.267 31.6486L138.313 31.6492ZM137.286 5.74154C136.229 5.75278 135.168 5.36705 134.353 4.55167L132.873 5.90048C134.094 7.12157 135.706 7.71167 137.308 7.69462L137.286 5.74154ZM134.353 4.55167C133.535 3.73349 133.132 2.64956 133.144 1.55196L131.098 1.53212C131.082 3.09325 131.655 4.68219 132.873 5.90048L134.353 4.55167ZM132.121 0.565439L7.57913 0.56389L7.57911 2.51709L132.121 2.51864L132.121 0.565439ZM6.55631 1.55041C6.56798 2.64802 6.16552 3.73191 5.34734 4.55009L6.82696 5.89889C8.04526 4.6806 8.61854 3.09169 8.60193 1.53057L6.55631 1.55041ZM5.34734 4.55009C4.50275 5.39468 3.38728 5.77195 2.27711 5.72664L2.18973 7.67806C3.85142 7.74588 5.55023 7.17562 6.82696 5.89889L5.34734 4.55009ZM1.21056 6.70235L1.21064 31.6684L3.25637 31.6684L3.25628 6.70234L1.21056 6.70235ZM2.28239 32.6439C3.39143 32.5932 4.49983 32.9731 5.34742 33.8207L6.82704 32.4719C5.55332 31.1981 3.86158 30.6163 2.18462 30.6929L2.28239 32.6439ZM5.34742 33.8207C6.19568 34.6689 6.59005 35.8094 6.543 36.962L8.58718 37.038C8.65327 35.4187 8.1001 33.7449 6.82704 32.4719L5.34742 33.8207ZM7.56514 37.9766L132.128 37.9712L132.128 36.018L7.56504 36.0234L7.56514 37.9766ZM133.15 36.9566C133.103 35.804 133.498 34.6636 134.346 33.8153L132.866 32.4665C131.593 33.7395 131.04 35.4133 131.106 37.0327L133.15 36.9566Z" fill="url(#paint0_linear)"/>
<defs>
<linearGradient id="paint0_linear" x1="-57.5059" y1="4.08002" x2="-4.99887" y2="56.5871" gradientUnits="userSpaceOnUse">
<stop stop-color="#232322"/>
<stop offset="0.9896" stop-color="#DBDBDB"/>
</linearGradient>
</defs>
</svg>
