<svg width="120" height="33" viewBox="0 0 120 33" fill="none" xmlns="http://www.w3.org/2000/svg">
<path d="M118.309 27.2489L118.297 28.2254L119.331 28.2364L119.332 27.2492L118.309 27.2489ZM118.315 5.63461L119.338 5.63488L119.338 4.64707L118.303 4.65807L118.315 5.63461ZM113.829 1.14844L114.852 1.15836L114.862 0.171835L113.829 0.171836L113.829 1.14844ZM5.88498 1.14857L5.88498 0.17197L4.85167 0.171972L4.86217 1.15849L5.88498 1.14857ZM1.25173 5.62248L1.29541 4.64677L0.228862 4.60323L0.228862 5.62248L1.25173 5.62248ZM1.25171 27.2674H0.228845L0.228845 28.2919L1.3006 28.2429L1.25171 27.2674ZM5.87273 31.8884L4.85064 31.8504L4.80922 32.8651L5.87279 32.865L5.87273 31.8884ZM113.835 31.8822L113.835 32.8588L114.898 32.8587L114.857 31.8441L113.835 31.8822ZM118.742 27.2443L118.731 28.2209C119.004 28.2238 119.267 28.1222 119.461 27.9388C119.656 27.7554 119.765 27.5054 119.765 27.2446L118.742 27.2443ZM118.748 5.63618L119.771 5.63644C119.771 5.3755 119.662 5.12538 119.468 4.94187C119.273 4.75837 119.01 4.65673 118.737 4.65964L118.748 5.63618ZM114.262 1.14998L115.285 1.1599C115.288 0.899185 115.181 0.648236 114.989 0.462939C114.797 0.277642 114.535 0.173382 114.262 0.173379L114.262 1.14998ZM6.31845 1.14864L6.31846 0.172036C6.04538 0.172033 5.78363 0.27629 5.59151 0.461588C5.3994 0.646886 5.29286 0.897838 5.29564 1.15856L6.31845 1.14864ZM1.6852 5.62254L1.72888 4.64683C1.45028 4.63546 1.17889 4.73319 0.977535 4.91739C0.776184 5.10159 0.662331 5.3563 0.662332 5.62255L1.6852 5.62254ZM1.68527 27.2612L0.662406 27.2612C0.662407 27.5283 0.776998 27.7838 0.979493 27.9681C1.18199 28.1524 1.45471 28.2495 1.73416 28.2367L1.68527 27.2612ZM6.30629 31.8822L5.2842 31.8442C5.27337 32.1096 5.37623 32.3678 5.56908 32.5592C5.76193 32.7507 6.02814 32.8589 6.30633 32.8588L6.30629 31.8822ZM114.268 31.8776L114.268 32.8542C114.546 32.8542 114.813 32.746 115.005 32.5546C115.198 32.3631 115.301 32.105 115.29 31.8396L114.268 31.8776ZM115.856 29.2164C116.535 28.5368 117.418 28.2161 118.297 28.2254L118.32 26.2724C116.895 26.2572 115.461 26.7822 114.376 27.8676L115.856 29.2164ZM119.332 27.2492L119.338 5.63488L117.292 5.63435L117.286 27.2486L119.332 27.2492ZM118.303 4.65807C117.424 4.66743 116.541 4.34674 115.862 3.66707L114.382 5.01588C115.467 6.10127 116.901 6.62632 118.326 6.61115L118.303 4.65807ZM115.862 3.66707C115.179 2.98459 114.842 2.07878 114.852 1.15836L112.806 1.13852C112.791 2.52247 113.299 3.9333 114.382 5.01588L115.862 3.66707ZM113.829 0.171836L5.88498 0.17197L5.88498 2.12517L113.829 2.12504L113.829 0.171836ZM4.86217 1.15849C4.87196 2.07892 4.5345 2.98472 3.85202 3.6672L5.33164 5.01601C6.41423 3.93342 6.92251 2.5226 6.90779 1.13865L4.86217 1.15849ZM3.85202 3.6672C3.1488 4.37042 2.22088 4.68454 1.29541 4.64677L1.20804 6.59819C2.68501 6.65847 4.19627 6.15138 5.33164 5.01601L3.85202 3.6672ZM0.228862 5.62248L0.228845 27.2674H2.27457L2.27459 5.62248L0.228862 5.62248ZM1.3006 28.2429C2.22399 28.2007 3.14578 28.5165 3.85202 29.2227L5.33164 27.8739C4.19928 26.7415 2.69413 26.2238 1.20282 26.2919L1.3006 28.2429ZM3.85202 29.2227C4.55892 29.9296 4.89014 30.8826 4.85064 31.8504L6.89481 31.9265C6.95337 30.4919 6.46334 29.0056 5.33164 27.8739L3.85202 29.2227ZM5.87279 32.865L113.835 32.8588L113.835 30.9056L5.87267 30.9118L5.87279 32.865ZM114.857 31.8441C114.817 30.8763 115.149 29.9233 115.856 29.2164L114.376 27.8676C113.244 28.9993 112.754 30.4856 112.813 31.9202L114.857 31.8441ZM116.289 29.2119C116.969 28.5322 117.852 28.2115 118.731 28.2209L118.754 26.2678C117.328 26.2526 115.895 26.7777 114.809 27.8631L116.289 29.2119ZM119.765 27.2446L119.771 5.63644L117.725 5.63592L117.719 27.2441L119.765 27.2446ZM118.737 4.65964C117.858 4.66899 116.975 4.34829 116.295 3.66862L114.815 5.01743C115.901 6.10282 117.334 6.62788 118.76 6.61272L118.737 4.65964ZM116.295 3.66862C115.613 2.98614 115.275 2.08032 115.285 1.1599L113.239 1.14006C113.224 2.52402 113.733 3.93485 114.815 5.01743L116.295 3.66862ZM114.262 0.173379L6.31846 0.172036L6.31843 2.12524L114.262 2.12658L114.262 0.173379ZM5.29564 1.15856C5.30543 2.07899 4.96798 2.98478 4.28551 3.66725L5.76513 5.01605C6.84772 3.93347 7.35598 2.52266 7.34126 1.13872L5.29564 1.15856ZM4.28551 3.66725C3.58228 4.37048 2.65434 4.68461 1.72888 4.64683L1.64151 6.59825C3.11849 6.65854 4.62976 6.15142 5.76513 5.01605L4.28551 3.66725ZM0.662332 5.62255L0.662406 27.2612L2.70813 27.2612L2.70806 5.62254L0.662332 5.62255ZM1.73416 28.2367C2.65755 28.1945 3.57935 28.5103 4.28558 29.2165L5.7652 27.8677C4.63284 26.7354 3.12769 26.2176 1.63638 26.2857L1.73416 28.2367ZM4.28558 29.2165C4.99248 29.9234 5.3237 30.8764 5.2842 31.8442L7.32838 31.9203C7.38693 30.4857 6.8969 28.9994 5.7652 27.8677L4.28558 29.2165ZM6.30633 32.8588L114.268 32.8542L114.268 30.901L6.30624 30.9056L6.30633 32.8588ZM115.29 31.8396C115.251 30.8717 115.582 29.9188 116.289 29.2119L114.809 27.8631C113.678 28.9948 113.188 30.481 113.246 31.9156L115.29 31.8396Z" fill="url(#paint0_linear)"/>
<defs>
<linearGradient id="paint0_linear" x1="-50.0924" y1="3.34971" x2="-4.58324" y2="48.8589" gradientUnits="userSpaceOnUse">
<stop stop-color="#232322"/>
<stop offset="0.9896" stop-color="#DBDBDB"/>
</linearGradient>
</defs>
</svg>
