<svg width="248" height="47" viewBox="0 0 248 47" fill="none" xmlns="http://www.w3.org/2000/svg">
<path d="M241.375 41.1012L240.668 40.3941L241.375 41.1012ZM246.049 39.2082L246.039 40.2082L247.049 40.2189L247.049 39.2085L246.049 39.2082ZM246.058 7.56727L247.058 7.56756L247.059 6.55658L246.048 6.56733L246.058 7.56727ZM239.491 1L240.491 1.01064L240.502 -8.34465e-07L239.491 0V1ZM7.78252 1.0002L7.78251 0.000198364L6.77182 0.000199258L6.78257 1.01084L7.78252 1.0002ZM5.88952 5.67445L5.18241 4.96734L5.88952 5.67445ZM1.00002 7.54951L1.04081 6.55034L2.43187e-05 6.50786L2.35438e-05 7.54951L1.00002 7.54951ZM1 39.2353H0L-8.34465e-07 40.2821L1.04564 40.2343L1 39.2353ZM7.76458 46L6.76542 45.9592L6.72293 47L7.76462 47L7.76458 46ZM239.5 45.9908L239.5 46.9908L240.542 46.9908L240.499 45.9501L239.5 45.9908ZM242.009 41.0946L241.302 40.3875L242.009 41.0946ZM246.684 39.2015L246.673 40.2015C246.94 40.2043 247.197 40.1003 247.387 39.9125C247.577 39.7247 247.684 39.4688 247.684 39.2018L246.684 39.2015ZM246.693 7.56957L247.693 7.56985C247.693 7.30274 247.586 7.0467 247.396 6.85881C247.206 6.67091 246.949 6.56678 246.682 6.56962L246.693 7.56957ZM240.125 1.00226L241.125 1.0129C241.128 0.745852 241.024 0.488767 240.836 0.298926C240.648 0.109084 240.392 0.00226063 240.125 0.00225836L240.125 1.00226ZM8.41706 1.0003L8.41707 0.000295162C8.15001 0.000292897 7.89404 0.107114 7.70621 0.296956C7.51837 0.486798 7.41428 0.743886 7.41712 1.01093L8.41706 1.0003ZM6.52409 5.67452L5.81698 4.96741L6.52409 5.67452ZM1.63457 7.54961L1.67535 6.55044C1.40329 6.53933 1.13846 6.63965 0.942031 6.82823C0.745604 7.0168 0.634569 7.27732 0.63457 7.54961L1.63457 7.54961ZM1.63468 39.2263L0.634678 39.2263C0.634679 39.4994 0.746403 39.7607 0.943897 39.9493C1.14139 40.138 1.40747 40.2377 1.68032 40.2252L1.63468 39.2263ZM8.39926 45.991L7.40009 45.9502C7.38899 46.2222 7.48931 46.4871 7.67789 46.6835C7.86647 46.8799 8.127 46.991 8.39929 46.991L8.39926 45.991ZM240.134 45.9841L240.134 46.9841C240.407 46.9841 240.667 46.8731 240.856 46.6767C241.044 46.4803 241.145 46.2154 241.134 45.9434L240.134 45.9841ZM242.082 41.8084C243.172 40.7184 244.604 40.1929 246.039 40.2082L246.06 38.2083C244.122 38.1877 242.162 38.9002 240.668 40.3941L242.082 41.8084ZM247.049 39.2085L247.058 7.56756L245.058 7.56699L245.049 39.2079L247.049 39.2085ZM246.048 6.56733C244.613 6.5826 243.181 6.0571 242.091 4.96716L240.677 6.38136C242.171 7.87528 244.131 8.58784 246.069 8.56722L246.048 6.56733ZM242.091 4.96716C241.001 3.87721 240.476 2.44564 240.491 1.01064L238.491 0.989362C238.471 2.92772 239.183 4.88746 240.677 6.38136L242.091 4.96716ZM239.491 0L7.78251 0.000198364L7.78252 2.0002L239.491 2V0ZM6.78257 1.01084C6.79784 2.44585 6.27234 3.87741 5.18241 4.96734L6.59663 6.38155C8.09053 4.88764 8.80308 2.92791 8.78246 0.989561L6.78257 1.01084ZM5.18241 4.96734C4.05146 6.09831 2.54541 6.61175 1.04081 6.55034L0.959241 8.54868C2.97151 8.63081 5.03611 7.94209 6.59663 6.38155L5.18241 4.96734ZM2.35438e-05 7.54951L0 39.2353H2L2.00002 7.54951L2.35438e-05 7.54951ZM1.04564 40.2343C2.55149 40.1655 4.04863 40.6838 5.1824 41.8175L6.59662 40.4033C5.03892 38.8456 2.98332 38.1437 0.954362 38.2364L1.04564 40.2343ZM5.1824 41.8175C6.31336 42.9485 6.82683 44.4546 6.76542 45.9592L8.76375 46.0408C8.84589 44.0285 8.15714 41.9639 6.59662 40.4033L5.1824 41.8175ZM7.76462 47L239.5 46.9908L239.5 44.9908L7.76454 45L7.76462 47ZM240.499 45.9501C240.438 44.4454 240.951 42.9393 242.082 41.8084L240.668 40.3941C239.107 41.9547 238.419 44.0193 238.501 46.0316L240.499 45.9501ZM242.717 41.8017C243.807 40.7117 245.238 40.1862 246.673 40.2015L246.694 38.2016C244.756 38.181 242.796 38.8936 241.302 40.3875L242.717 41.8017ZM247.684 39.2018L247.693 7.56985L245.693 7.56928L245.684 39.2013L247.684 39.2018ZM246.682 6.56962C245.247 6.58489 243.815 6.05937 242.726 4.96942L241.311 6.38363C242.805 7.87754 244.765 8.59013 246.703 8.56951L246.682 6.56962ZM242.726 4.96942C241.636 3.87948 241.11 2.4479 241.125 1.0129L239.125 0.991621C239.105 2.92997 239.817 4.88972 241.311 6.38363L242.726 4.96942ZM240.125 0.00225836L8.41707 0.000295162L8.41705 2.0003L240.125 2.00226L240.125 0.00225836ZM7.41712 1.01093C7.43238 2.44595 6.9069 3.87748 5.81698 4.96741L7.2312 6.38162C8.7251 4.8877 9.43763 2.928 9.41701 0.989658L7.41712 1.01093ZM5.81698 4.96741C4.68602 6.09839 3.17995 6.61185 1.67535 6.55044L1.59379 8.54877C3.60606 8.63091 5.67068 7.94216 7.2312 6.38162L5.81698 4.96741ZM0.63457 7.54961L0.634678 39.2263L2.63468 39.2263L2.63457 7.5496L0.63457 7.54961ZM1.68032 40.2252C3.18617 40.1564 4.68331 40.6747 5.81708 41.8085L7.2313 40.3943C5.6736 38.8366 3.618 38.1346 1.58904 38.2273L1.68032 40.2252ZM5.81708 41.8085C6.94804 42.9395 7.46151 44.4456 7.40009 45.9502L9.39843 46.0317C9.48056 44.0194 8.79182 41.9548 7.2313 40.3943L5.81708 41.8085ZM8.39929 46.991L240.134 46.9841L240.134 44.9841L8.39923 44.991L8.39929 46.991ZM241.134 45.9434C241.072 44.4387 241.586 42.9327 242.717 41.8017L241.302 40.3875C239.742 41.948 239.053 44.0126 239.135 46.0249L241.134 45.9434Z" fill="url(#paint0_linear)"/>
<defs>
<linearGradient id="paint0_linear" x1="-74.1613" y1="4.22244" x2="-7.5408" y2="70.8421" gradientUnits="userSpaceOnUse">
<stop stop-color="#232322"/>
<stop offset="0.9896" stop-color="#DBDBDB"/>
</linearGradient>
</defs>
</svg>
