<svg width="15" height="23" viewBox="0 0 15 23" fill="none" xmlns="http://www.w3.org/2000/svg">
<path fill-rule="evenodd" clip-rule="evenodd" d="M14.5718 23C14.7835 23 14.9551 22.8284 14.9551 22.6167C14.9551 22.405 14.7835 22.2333 14.5718 22.2333H1.91678C1.24116 22.2333 0.711772 21.6561 0.771237 20.9823L1.93815 7.75728C1.99091 7.15928 2.4834 6.70833 3.0837 6.70833H4.26719V8.43333C4.26719 8.64503 4.43883 8.81667 4.65052 8.81667C4.86222 8.81667 5.03386 8.64503 5.03386 8.43333V3.97708C5.03386 2.20685 6.47404 0.766667 8.24427 0.766667C10.0145 0.766667 11.4547 2.20685 11.4547 3.97708V5.94167H6.42344C6.21174 5.94167 6.04011 6.1133 6.04011 6.325C6.04011 6.5367 6.21174 6.70833 6.42344 6.70833H11.4547V8.43333C11.4547 8.64503 11.6263 8.81667 11.838 8.81667C12.0497 8.81667 12.2214 8.64503 12.2214 8.43333V6.70833H13.4048C13.6165 6.70833 13.7882 6.5367 13.7882 6.325C13.7882 6.1133 13.6165 5.94167 13.4048 5.94167H12.2214V3.97708C12.2214 1.78413 10.4373 0 8.24427 0C6.05127 0 4.26719 1.78413 4.26719 3.97708V5.94167H3.0837C2.08315 5.94167 1.26238 6.69324 1.17446 7.68986L0.00754091 20.9149C-0.0912153 22.0344 0.792656 23 1.91678 23H14.5718Z" fill="white"/>
</svg>
