<svg xmlns="http://www.w3.org/2000/svg" width="270.29mm" height="424.335" viewBox="0 0 5435 2258" shape-rendering="geometricPrecision" text-rendering="geometricPrecision" image-rendering="optimizeQuality" fill-rule="evenodd" clip-rule="evenodd"><path d="M3222 868l8 126c1 7 1 12 1 22s2 11 2 21c0 28 5 57 5 86l3 41c2 15 2 29 2 44 0 12 3 29 4 41l3 62c0 10 2 12 2 21l5 86c0 10 2 11 2 21 0 25 3 37 3 64l4 43h-178l33-170c5-29 12-56 17-85 2-14 5-27 8-42s6-28 8-43l33-170c6-28 10-57 17-85l12-63c1-4 1-5 2-11l3-11zm964 298h-173c-7 0-4-6-4-14l20-317c0-10 2-11 2-20l6-106c1-7 1-13 1-21 0-18 5-63 5-84 0-10 2-12 2-21l2-43c1-12 3-30 3-43h185c51 0 36 38 36 78l-23 358c0 8 1 15 0 23-5 45-5 103-10 147-3 27 8 62-52 62zm-1210 932c4-19 8-40 12-59 4-21 8-40 12-61 4-20 8-40 12-61 4-20 8-41 13-60h264c0 17 5 44 5 61 1 30 6 61 7 91 1 20 5 41 5 62 0 9-1 27 7 27h631c8 0 5-14 7-34 2-25 2-52 5-77 1-6 0-13 0-19l7-97c2-18 1-41 4-59 3-19 2-39 4-59 1-6 0-12 1-19l10-155c0-8 0-13 1-21 3-22 5-57 5-79h46c7 0 6 9 8 15l51 214c6 25 13 54 19 79 20 78 39 155 56 234l14 59c2 7 1 17 8 17h397c0-9-7-29-10-39l-41-153c-16-65-36-129-52-194-16-64-36-129-51-193-3-13-8-26-11-39 49 0 86-13 113-35 45-36 73-91 72-152l22-350c2-11 1-25 3-35l4-71c0-8 1-10 2-16 1-7 0-12 1-19 3-17 2-35 3-52l5-70c1-17 1-37 3-54l6-106h119c0 33-5 65-5 98l-7 98c-2 17-1 33-2 50l-7 98c0 18-1 35-3 50l-24 394c-2 14-2 35-3 49 0 9-2 12-2 23l-32 520c-1 15-4 33-4 48l-6 99c-2 15-3 33-3 50h392c8 0 5-11 5-20 0-16 4-32 4-50l8-124c2-13 3-34 3-49 0-9 2-13 2-25s2-15 2-25c0-13 1-36 3-49 3-17 1-34 3-51 1-15 3-32 3-48l4-50c0-11 1-15 2-23l4-77c2-29 6-69 7-98l5-100c1-15 4-32 4-48 0-17 3-34 4-50 1-35 4-65 5-100l35-543c1-9 1-16 1-26 0-9 2-13 2-25h260c-7-29-12-59-19-90l-27-135c-3-16-6-30-9-46-3-14-6-30-9-44-3-16-8-31-8-47h-720c-1 7-3 12-5 18-6 17-14 36-18 53h-4c-2-7-9-12-14-17-11-11-24-18-37-25-33-20-85-29-129-29h-754c0 27-4 48-4 73 0 8-1 11-1 16-1 7 0 13-1 19-1 10-2 26-3 36-1 6 0 12 0 18l-6 92c-3 22-4 82-6 110l-3 54c0 19-4 35-4 53l-11 164c-1 30-6 61-5 91 0 30-4 61-5 91l-14 216c0 43-7 87-7 130h-2c0-36-13-104-16-144l-3-24c-1-10-1-15-2-24l-34-287c-9-63-13-129-23-191l-6-48-51-432c-2-18-4-12-42-12h-376l-68 281c-53 211-102 423-155 635-6 23-12 47-17 70l-111 457-9 36-103 423c-1 3-9 35-9 35 1 5 0 3 6 3h385z" fill="#fff"/><path d="M61 1891c1-9 3-18 5-26l6-33c1-5 1-11 3-17 1-5 2-9 3-13 1-9 3-18 4-28 1-9 4-18 5-25 0-6 9-57 11-61 0-8 12-83 14-87 1-14 6-30 7-44 1-16 7-37 9-53 1-14 5-32 7-46 1-8 2-14 4-23 1-6 3-12 3-20 3-10 4-29 7-37 1-15 5-30 7-45 1-6 2-10 3-17 1-5 0-9 3-11 0-13 5-26 5-37 3-17 7-35 9-52 2-12 4-23 6-35 1-4 2-13 3-17 1-6 2-8 2-14 1-9 3-18 5-27 1-7 4-18 4-24 2-10 4-21 5-30 1-20 9-40 9-61 2-5 5-22 5-27 2-10 4-21 5-30l9-55c1-4 1-5 1-9 0-2 0-2 1-4l1-2c0-15 5-33 7-47 0-6 5-35 7-38 0-13 4-18 4-30 1-5 5-23 5-29 0-7 2-10 3-17l8-42c0-13 2-19 4-31 1-4 4-23 5-28 1-9 3-15 4-25 1-7 9-63 12-66 0-9 1-11 3-19 1-7 5-42 8-45 0-11 2-19 4-30 2-10 2-17 5-25l11-63c0-8 9-62 11-65 0-9 8-57 11-63 0-7 5-38 7-42 0-9 3-25 5-34 0-6 13-80 14-84 0-14 5-31 7-45 0-8 1-6 2-12h2175l-10 66c-2 10 1 4-4 8l1 5c-3 15-11 81-16 88 1 9-8 69-12 75 1 10-8 60-11 72l-6 34-19 104c1 7-8 62-11 67 1 15-5 38-8 54l-9 53c-1 2-1 2-1 4l-1 3c1 8-1 27-6 33 1 11-4 32-6 43-2 12-10 70-14 75 1 9-6 57-11 63 1 5-4 46-9 52 2 13-10 62-12 80-3 11-4 23-6 34l-7 35c1 5-5 56-11 64 2 8-1 27-6 33 1 9-2 19-3 29l-11 55c1 7-2 30-6 35 1 10-4 45-9 52 1 10-2 21-4 31-1 7-3 25-7 30 1 6 0 11-1 17 0 3-1 6-2 9-1 6 0 3-3 7 1 7 0 11-1 17 0 2-1 6-1 8-1 6 0 3-3 7l-6 47c-4 12 4-10-1 3 0 0-1 2-1 1 0 0 0 1-1 1 1 6 0 11-1 17l-4 15c2 8-5 50-9 56 1 10-6 57-11 63 1 10-4 47-9 53 1 8-1 26-5 32 1 9-2 20-4 30l-7 44c-1 7-5 35-8 41 2 10-2 23-4 34-2 10-2 24-7 31 1 9-2 19-3 28-1 8-2 20-6 25 2 12-5 37-7 50s-2 37-9 46c1 10-4 47-9 53 1 9-7 59-11 64 1 12-6 45-8 59-2 15 1 17-14 18H283v-1c-60 0-120 0-179 1H-3c1-8 3-17 5-26l8-52c1-4 3-22 5-24 0-6 7-52 9-55 0-7 2-17 3-23 22-128 5-17 31-186zm456 174h338c105-517 245-1341 338-1882H858c4 119-325 1793-340 1883zm846-547c-3 7-4 20-5 29s-5 20-5 30c0 6-3 14-4 20-1 7-3 16-4 24-2 3-7 34-7 41-3 4-11 55-11 64l-11 56c-2 15-7 27-5 46 3 30 29 49 61 44 24-4 22-6 38-15 6-10 30-30 28-46 4-6 11-52 12-59 3-13 11-53 10-63l1-3c0-1 8-24 6-38l3-10c1-3 1-7 2-11 1-7 4-15 2-22 1-2 1 0 2-4l2-9c1-7 1-7 1-13 5-6 7-33 9-43 2-13 9-41 8-52l7-30c2-11 5-22 4-32 3-4 3-10 2-16 9-14-5-68-10-83-5-14-31-56-39-60-2-5-24-35-29-38-2-6 0-1-4-6l-28-35-7-11c-9-11-51-66-55-67-2-7-19-27-25-34-5-6-22-30-26-32-2-4-26-38-30-40-5-12-14-23-21-35-3-5-7-12-10-19-2-5-5-15-8-19-4-23-6-34-5-59l9-64 15-84c3-14 11-50 9-62 5-7 9-39 9-49 4-5 12-56 11-63 7-11 10-58 15-75 2-14 10-45 9-57 2-2 1 0 2-4l4-17c2-7 5-15 4-22 3-4 2-2 4-8 1-3 2-5 3-8 2-6 4-10 4-17 5-5 11-22 14-30l16-30c5-3 10-11 14-16 5-7 9-10 15-15 5-4 33-23 34-25 9-3 19-10 29-14s19-8 30-11c23-7 43-10 68-12 71-2 144 0 216 0 69 0 134 6 171 46 8 8 25 31 30 45 4 12 9 21 12 34 3 14 4 27 4 44 0 6-1 17-2 25s-3 18-3 27c-1 9-4 20-5 29-1 10-3 24-6 32 0 7-3 18-4 26-2 10-4 20-5 29-1 3-5 26-5 30-1 7-3 15-5 24-2 10-4 19-4 29-3 9-4 21-6 32-2 13-4 23-6 35 0 7-4 24-5 30s-1 8-2 15c-1 5-3 11-3 18-1 7-3 16-5 24-2 9-4 19-4 27-1 6-3 14-5 22l-267 1c0-19 12-53 11-71 5-6 10-44 9-53 2-3 1 0 2-5l8-53c6-7 11-64 15-77 2-14 8-35 7-48 4-6 4-21 7-28l1-10 3-13c8-39-7-73-48-73-33 0-67 20-77 48-2 5-2 8-4 12-2 10-5 24-5 34-2 9-3 15-5 25s-4 18-4 29l-4 15-3 18c-2 13-5 25-6 37-3 2-2 8-3 13-1 7-2 9-3 15-1 9-5 22-5 31-2 8-3 15-5 25s-4 18-4 29c-3 4-7 33-8 43-1 7-3 35-1 42 2 6-2 2 3 5-5 14 13 49 21 63 5 8-1 3 7 7-1 5-1 1 0 5 0 2 2 4 3 6l48 65c4 3-3 0 4 3 0 6 24 34 29 38l36 42c0 1-2 1 3 8l45 56 25 31c7 9 4 7 10 10 1 6 15 23 19 30 8 12 15 29 21 32-2 6-1 2 2 9 2 3 2 4 4 9l13 37c4 15 1 16 6 20-5 12-2 30-2 43-1 8-2 10-2 20-2 3-9 52-9 60-3 3 0-1-2 4 0 1-1 7-1 7-1 7-2 11-2 17-2 4-9 45-9 51-2 8-4 20-5 30-1 11-5 21-5 34-2 2-2 7-3 11-1 6-1 9-2 14-2 10-3 21-5 30 0 10-5 24-5 36-2 3-5 23-5 29-2 14-6 28-7 43-2 5-7 35-7 43-3 2-3 10-3 14-1 7-2 10-3 17-2 12-5 25-6 37-2 5-4 16-5 22-2 7-5 18-6 26l-17 48c-9 22-20 35-24 45-2 1-14 18-17 22-4 5-5 6-9 11l-11 12c-8 11-40 34-55 40-8 3-15 5-23 10-9 1-44 13-76 14l-89 2c-17 0-28 2-43 2h-116c-11 0-13-2-23-2-5 0-19-3-25-4-4-1-7-1-12-2s-7-3-13-3c-35-8-45-20-63-33-3-2-1-1-3-2-3-5 0-1-4-6-1-2-2-2-3-4l-34-64c-1-9-4-17-5-26-1-10 1-19-1-28 3-6 7-52 8-63 2-16 10-49 9-62 4-6 7-27 6-34l1-3s9-33 7-46c4-5 14-64 13-73l4-15c1-7 3-11 1-17l2-6c0-1 1-5 1-6 1-4 1-8 2-12 1-8 4-17 3-25 5-7 10-40 9-50 4-6 12-62 14-74 6-5 126-2 133-2h136l-10 59-4 23c-2 11-6 22-6 34z" fill="#1aa74b"/></svg>