<svg width="142" height="141" viewBox="0 0 142 141" fill="none" xmlns="http://www.w3.org/2000/svg">
<path fill-rule="evenodd" clip-rule="evenodd" d="M40.3846 13.5L50 1L59.6154 13.5L135.992 13.5L136.433 13.5H140.994L141 18.1978L140.994 134.621C139.821 134.607 138.641 135.097 137.743 136.119C136.807 137.184 136.389 138.596 136.439 139.987L135.998 139.988L135.998 139.993L5.70427 140C5.75418 138.609 5.33616 137.196 4.40029 136.131C3.46443 135.067 2.2291 134.584 1 134.648L1.00011 18.1819V13.5L3.64706 13.5H5.71683H6.15811H40.3846Z" fill="#0F0F0F"/>
<path d="M50 1L50.3963 0.695145L50 0.179939L49.6037 0.695145L50 1ZM40.3846 13.5V14H40.6308L40.7809 13.8049L40.3846 13.5ZM59.6154 13.5L59.2191 13.8049L59.3692 14H59.6154V13.5ZM135.992 13.5V14V13.5ZM136.433 13.5V13V13.5ZM140.994 13.5L141.494 13.4993L141.493 13H140.994V13.5ZM141 18.1978L141.5 18.1978V18.1971L141 18.1978ZM140.994 134.621L140.988 135.121L141.494 135.127L141.494 134.621L140.994 134.621ZM137.743 136.119L138.119 136.449L137.743 136.119ZM136.439 139.987L136.439 140.487L136.957 140.487L136.939 139.97L136.439 139.987ZM135.998 139.988L135.998 139.488L135.48 139.488L135.498 140.005L135.998 139.988ZM135.998 139.993L135.998 140.493L136.516 140.493L136.498 139.975L135.998 139.993ZM5.70427 140L5.20459 139.982L5.18601 140.5L5.70429 140.5L5.70427 140ZM4.40029 136.131L4.77585 135.801H4.77585L4.40029 136.131ZM1 134.648H0.5L0.5 135.175L1.02595 135.147L1 134.648ZM1.00011 18.1819H1.50011H1.00011ZM1.00011 13.5L1.00011 13H0.500108V13.5H1.00011ZM3.64706 13.5L3.64706 14H3.64706V13.5ZM49.6037 0.695145L39.9883 13.1951L40.7809 13.8049L50.3963 1.30486L49.6037 0.695145ZM60.0117 13.1951L50.3963 0.695145L49.6037 1.30486L59.2191 13.8049L60.0117 13.1951ZM59.6154 14L135.992 14V13L59.6154 13V14ZM135.992 14L136.433 14V13L135.992 13V14ZM136.433 14H140.994V13H136.433V14ZM140.494 13.5007L140.5 18.1984L141.5 18.1971L141.494 13.4993L140.494 13.5007ZM140.5 18.1977L140.494 134.621L141.494 134.621L141.5 18.1978L140.5 18.1977ZM141 134.121C139.679 134.105 138.361 134.659 137.367 135.789L138.119 136.449C138.922 135.535 139.963 135.109 140.988 135.121L141 134.121ZM137.367 135.789C136.335 136.964 135.886 138.507 135.939 140.005L136.939 139.97C136.893 138.686 137.28 137.404 138.119 136.449L137.367 135.789ZM136.439 139.487L135.998 139.488L135.998 140.488L136.439 140.487L136.439 139.487ZM135.498 140.005L135.498 140.01L136.498 139.975L136.497 139.97L135.498 140.005ZM135.998 139.493L5.70424 139.5L5.70429 140.5L135.998 140.493L135.998 139.493ZM6.20394 140.018C6.25771 138.519 5.80853 136.976 4.77585 135.801L4.02474 136.462C4.86378 137.416 5.25065 138.698 5.20459 139.982L6.20394 140.018ZM4.77585 135.801C3.74016 134.623 2.35748 134.077 0.974051 134.149L1.02595 135.147C2.10072 135.091 3.1887 135.51 4.02474 136.462L4.77585 135.801ZM1.5 134.648L1.50011 18.1819H0.500108L0.5 134.648H1.5ZM1.50011 18.1819V13.5H0.500108V18.1819H1.50011ZM1.00011 14L3.64706 14L3.64706 13L1.00011 13L1.00011 14ZM3.64706 14H5.71683V13H3.64706V14ZM5.71683 14H6.15811V13H5.71683V14ZM6.15811 14H40.3846V13H6.15811V14Z" fill="white" fill-opacity="0.2"/>
</svg>
