<svg width="30" height="24" viewBox="0 0 30 24" fill="none" xmlns="http://www.w3.org/2000/svg">
<path fill-rule="evenodd" clip-rule="evenodd" d="M3.67256 3.39493C3.02326 4.02654 2.17104 4.32918 1.32334 4.32041L1.31882 19.7893C2.16652 19.7806 3.01872 20.0832 3.66802 20.7148C4.31732 21.3464 4.62845 22.1754 4.61943 23L25.5912 22.9999C25.5822 22.1753 25.8933 21.3463 26.5426 20.7147C27.2189 20.0568 28.1162 19.7629 29 19.798L29 4.30718C28.1117 4.34665 27.2189 4.04839 26.5426 3.39046C25.8662 2.73254 25.5641 1.85969 25.6002 1L4.61495 1.00446C4.65102 1.86415 4.34892 2.737 3.67256 3.39493Z" fill="white"/>
<path d="M3.3537 3.39819C2.70439 4.0298 1.85218 4.33244 1.00448 4.32367L1 19.7882C1.8477 19.7794 2.69992 20.0821 3.34922 20.7137C3.99852 21.3453 4.30965 22.1743 4.30064 22.9989L25.2723 22.9999C25.2632 22.1753 25.5743 21.3463 26.2236 20.7147C26.9 20.0568 27.7973 19.7629 28.6811 19.798L28.681 4.3116C27.7927 4.35108 26.9 4.05281 26.2236 3.39489C25.5472 2.73696 25.2451 1.86412 25.2812 1.00443L4.29609 1.00773C4.33217 1.86742 4.03006 2.74027 3.3537 3.39819Z" fill="white"/>
<path d="M1.32334 4.32041L1.32852 3.82044L0.823492 3.81521L0.823345 4.32026L1.32334 4.32041ZM1.31882 19.7893L0.818817 19.7892L0.81867 20.2945L1.32399 20.2893L1.31882 19.7893ZM4.61943 23L4.11946 22.9945L4.11394 23.5L4.61944 23.5L4.61943 23ZM25.5912 22.9999L25.5912 23.4999L26.0967 23.4999L26.0911 22.9945L25.5912 22.9999ZM29 19.798L28.9802 20.2976L29.5 20.3183L29.5 19.798L29 19.798ZM29 4.30718L29.5 4.30718L29.5 3.78446L28.9778 3.80767L29 4.30718ZM25.6002 1L26.0997 1.02096L26.1216 0.499892L25.6001 0.500003L25.6002 1ZM4.61495 1.00446L4.61484 0.504464L4.09354 0.504575L4.11539 1.02543L4.61495 1.00446ZM1.00448 4.32367L1.00965 3.8237C0.876178 3.82232 0.747694 3.87436 0.652809 3.96824C0.557924 4.06212 0.504516 4.19005 0.504476 4.32353L1.00448 4.32367ZM1 19.7882L0.5 19.7881C0.49996 19.9216 0.553335 20.0496 0.648228 20.1435C0.743122 20.2375 0.871651 20.2896 1.00517 20.2882L1 19.7882ZM4.30064 22.9989L3.80066 22.9934C3.79921 23.127 3.85123 23.2555 3.94515 23.3505C4.03906 23.4455 4.16706 23.4989 4.30061 23.4989L4.30064 22.9989ZM25.2723 22.9999L25.2722 23.4999C25.4058 23.4999 25.5338 23.4465 25.6277 23.3515C25.7217 23.2565 25.7737 23.128 25.7722 22.9944L25.2723 22.9999ZM28.6811 19.798L28.6612 20.2976C28.7972 20.303 28.9295 20.2528 29.0276 20.1585C29.1256 20.0642 29.1811 19.934 29.1811 19.798L28.6811 19.798ZM28.681 4.3116L29.181 4.3116C29.181 4.17514 29.1253 4.04461 29.0266 3.95028C28.928 3.85596 28.7952 3.80604 28.6588 3.81209L28.681 4.3116ZM25.2812 1.00443L25.7808 1.02539C25.7865 0.889251 25.7364 0.756677 25.6421 0.658336C25.5477 0.559995 25.4174 0.504407 25.2811 0.504428L25.2812 1.00443ZM4.29609 1.00773L4.29601 0.507733C4.15978 0.507756 4.02946 0.563363 3.93518 0.6617C3.8409 0.760036 3.79082 0.892585 3.79653 1.0287L4.29609 1.00773ZM3.32393 3.03652C2.77652 3.56902 2.05472 3.82795 1.32852 3.82044L1.31817 4.82038C2.28737 4.83041 3.27 4.48406 4.0212 3.75333L3.32393 3.03652ZM0.823345 4.32026L0.818817 19.7892L1.81882 19.7895L1.82334 4.32056L0.823345 4.32026ZM1.32399 20.2893C2.05019 20.2818 2.77197 20.5407 3.31938 21.0732L4.01665 20.3564C3.26546 19.6257 2.28285 19.2793 1.31364 19.2894L1.32399 20.2893ZM3.31938 21.0732C3.86594 21.6049 4.12706 22.3002 4.11946 22.9945L5.11941 23.0055C5.12985 22.0505 4.76871 21.088 4.01665 20.3564L3.31938 21.0732ZM4.61944 23.5L25.5912 23.4999L25.5912 22.4999L4.61943 22.5L4.61944 23.5ZM26.0911 22.9945C26.0836 22.3002 26.3447 21.6048 26.8912 21.0731L26.1939 20.3563C25.4419 21.0879 25.0808 22.0505 25.0912 23.0054L26.0911 22.9945ZM26.8912 21.0731C27.4593 20.5205 28.2188 20.2674 28.9802 20.2976L29.0198 19.2984C28.0136 19.2585 26.9786 19.5931 26.1939 20.3563L26.8912 21.0731ZM29.5 19.798L29.5 4.30718L28.5 4.30718L28.5 19.798L29.5 19.798ZM28.9778 3.80767C28.2157 3.84154 27.4607 3.58602 26.8912 3.03206L26.1939 3.74886C26.9772 4.51075 28.0077 4.85177 29.0222 4.80668L28.9778 3.80767ZM26.8912 3.03206C26.3242 2.48052 26.0692 1.74909 26.0997 1.02096L25.1006 0.979041C25.059 1.9703 25.4082 2.98456 26.1939 3.74886L26.8912 3.03206ZM25.6001 0.500003L4.61484 0.504464L4.61506 1.50446L25.6003 1.5L25.6001 0.500003ZM4.11539 1.02543C4.14594 1.75355 3.89092 2.48499 3.32393 3.03652L4.0212 3.75333C4.80693 2.98902 5.1561 1.97476 5.11451 0.983503L4.11539 1.02543ZM3.00506 3.03979C2.45765 3.57228 1.73585 3.83121 1.00965 3.8237L0.999303 4.82365C1.9685 4.83367 2.95114 4.48732 3.70233 3.75659L3.00506 3.03979ZM0.504476 4.32353L0.5 19.7881L1.5 19.7884L1.50448 4.32382L0.504476 4.32353ZM1.00517 20.2882C1.73137 20.2807 2.45317 20.5396 3.00058 21.0721L3.69786 20.3553C2.94666 19.6246 1.96403 19.2782 0.994825 19.2882L1.00517 20.2882ZM3.00058 21.0721C3.54714 21.6038 3.80826 22.2991 3.80066 22.9934L4.80061 23.0044C4.81105 22.0494 4.44991 21.0868 3.69786 20.3553L3.00058 21.0721ZM4.30061 23.4989L25.2722 23.4999L25.2723 22.4999L4.30066 22.4989L4.30061 23.4989ZM25.7722 22.9944C25.7646 22.3001 26.0257 21.6048 26.5723 21.0731L25.875 20.3563C25.123 21.0879 24.7618 22.0504 24.7723 23.0053L25.7722 22.9944ZM26.5723 21.0731C27.1404 20.5205 27.8999 20.2674 28.6612 20.2976L28.7009 19.2984C27.6947 19.2584 26.6596 19.5931 25.875 20.3563L26.5723 21.0731ZM29.1811 19.798L29.181 4.3116L28.181 4.3116L28.1811 19.798L29.1811 19.798ZM28.6588 3.81209C27.8967 3.84596 27.1417 3.59045 26.5722 3.03648L25.875 3.75329C26.6582 4.51518 27.6887 4.85619 28.7032 4.81111L28.6588 3.81209ZM26.5722 3.03648C26.0052 2.48494 25.7502 1.75351 25.7808 1.02539L24.7816 0.983466C24.7401 1.97472 25.0892 2.98898 25.875 3.75329L26.5722 3.03648ZM25.2811 0.504428L4.29601 0.507733L4.29617 1.50773L25.2813 1.50443L25.2811 0.504428ZM3.79653 1.0287C3.82709 1.75682 3.57206 2.48825 3.00506 3.03979L3.70233 3.75659C4.48806 2.99229 4.83725 1.97803 4.79565 0.986774L3.79653 1.0287Z" fill="url(#paint0_linear)"/>
<defs>
<linearGradient id="paint0_linear" x1="125.221" y1="21.4246" x2="92.6637" y2="-12.0451" gradientUnits="userSpaceOnUse">
<stop stop-color="#232322"/>
<stop offset="0.9896" stop-color="#DBDBDB"/>
</linearGradient>
</defs>
</svg>
