<svg width="46" height="37" viewBox="0 0 46 37" fill="none" xmlns="http://www.w3.org/2000/svg">
<path d="M16.9092 29.4668L28.9092 18.4668L16.9092 7.4668" stroke="white"/>
<path d="M1.5068 6.35291L1.51211 5.85293L1.00694 5.84756L1.0068 6.35276L1.5068 6.35291ZM1.4997 31.2908L0.999698 31.2906L0.999553 31.7961L1.50502 31.7908L1.4997 31.2908ZM6.67571 36.4668L6.17573 36.4615L6.17036 36.9668L6.67571 36.9668L6.67571 36.4668ZM39.5635 36.4667L39.5635 36.9667L40.0688 36.9667L40.0634 36.4614L39.5635 36.4667ZM44.9092 31.3048L44.8888 31.8044L45.4092 31.8256L45.4092 31.3048L44.9092 31.3048ZM44.9092 6.33157L45.4092 6.33157L45.4092 5.80821L44.8864 5.83209L44.9092 6.33157ZM39.5776 0.999986L40.0772 1.02038L40.0984 0.499872L39.5775 0.499986L39.5776 0.999986ZM6.66868 1.00718L6.66857 0.507178L6.14786 0.507292L6.16909 1.02757L6.66868 1.00718ZM1.00675 6.35817L1.01207 5.85819C0.878572 5.85677 0.750047 5.9088 0.65513 6.00269C0.560216 6.09657 0.506788 6.22452 0.50675 6.35802L1.00675 6.35817ZM0.999728 31.289L0.499728 31.2888C0.49969 31.4224 0.553085 31.5504 0.648009 31.6444C0.742934 31.7383 0.871501 31.7904 1.00505 31.7889L0.999728 31.289ZM6.17577 36.465L5.6758 36.4597C5.67438 36.5932 5.72642 36.7218 5.82033 36.8167C5.91424 36.9116 6.04222 36.965 6.17575 36.965L6.17577 36.465ZM39.0634 36.4666L39.0633 36.9666C39.1969 36.9666 39.3249 36.9132 39.4188 36.8183C39.5127 36.7234 39.5647 36.5948 39.5633 36.4613L39.0634 36.4666ZM44.4091 31.3047L44.3887 31.8043C44.5247 31.8099 44.6571 31.7597 44.7553 31.6654C44.8535 31.5711 44.9091 31.4409 44.9091 31.3047L44.4091 31.3047ZM44.409 6.33871L44.909 6.3387C44.909 6.20214 44.8531 6.07151 44.7544 5.97717C44.6556 5.88284 44.5226 5.83299 44.3861 5.83923L44.409 6.33871ZM39.0774 1.00712L39.577 1.02751C39.5825 0.891466 39.5323 0.759039 39.438 0.660822C39.3437 0.562605 39.2135 0.507097 39.0773 0.50712L39.0774 1.00712ZM6.16865 1.01245L6.16857 0.51245C6.03243 0.512473 5.9022 0.568 5.80793 0.666209C5.71366 0.764422 5.66351 0.896823 5.66906 1.03284L6.16865 1.01245ZM4.83728 4.50736C3.92004 5.4246 2.71564 5.86574 1.51211 5.85293L1.50148 6.85288C2.95667 6.86836 4.42516 6.33369 5.54439 5.21447L4.83728 4.50736ZM1.0068 6.35276L0.999698 31.2906L1.9997 31.2909L2.0068 6.35305L1.0068 6.35276ZM1.50502 31.7908C2.70854 31.778 3.91291 32.2191 4.83015 33.1363L5.53726 32.4292C4.41803 31.31 2.94958 30.7753 1.49438 30.7908L1.50502 31.7908ZM4.83015 33.1363C5.74739 34.0536 6.18854 35.258 6.17573 36.4615L7.17568 36.4721C7.19116 35.0169 6.65648 33.5484 5.53726 32.4292L4.83015 33.1363ZM6.67571 36.9668L39.5635 36.9667L39.5635 35.9667L6.67571 35.9668L6.67571 36.9668ZM40.0634 36.4614C40.0506 35.2578 40.4918 34.0534 41.409 33.1362L40.7019 32.4291C39.5827 33.5483 39.048 35.0168 39.0635 36.472L40.0634 36.4614ZM41.409 33.1362C42.3623 32.1829 43.6298 31.753 44.8888 31.8044L44.9296 30.8052C43.4167 30.7435 41.87 31.261 40.7019 32.4291L41.409 33.1362ZM45.4092 31.3048L45.4092 6.33157L44.4092 6.33157L44.4092 31.3048L45.4092 31.3048ZM44.8864 5.83209C43.6242 5.88976 42.3637 5.45484 41.409 4.50016L40.7019 5.20727C41.8686 6.37391 43.4082 6.90067 44.932 6.83105L44.8864 5.83209ZM41.409 4.50016C40.4558 3.54689 40.0258 2.27939 40.0772 1.02038L39.078 0.979597C39.0163 2.49244 39.5339 4.03922 40.7019 5.20727L41.409 4.50016ZM39.5775 0.499986L6.66857 0.507178L6.66879 1.50718L39.5777 1.49999L39.5775 0.499986ZM6.16909 1.02757C6.22048 2.28658 5.79054 3.55409 4.83728 4.50736L5.54439 5.21447C6.71244 4.04641 7.23001 2.49963 7.16826 0.986789L6.16909 1.02757ZM4.33723 4.51262C3.41999 5.42986 2.21559 5.871 1.01207 5.85819L1.00143 6.85814C2.45663 6.87362 3.92511 6.33895 5.04434 5.21973L4.33723 4.51262ZM0.50675 6.35802L0.499728 31.2888L1.49973 31.2891L1.50675 6.35831L0.50675 6.35802ZM1.00505 31.7889C2.20857 31.7761 3.41297 32.2173 4.33021 33.1345L5.03732 32.4274C3.91809 31.3082 2.44961 30.7735 0.994411 30.789L1.00505 31.7889ZM4.33021 33.1345C5.24745 34.0518 5.6886 35.2562 5.6758 36.4597L6.67574 36.4703C6.69122 35.0151 6.15654 33.5467 5.03732 32.4274L4.33021 33.1345ZM6.17575 36.965L39.0633 36.9666L39.0634 35.9666L6.17579 35.965L6.17575 36.965ZM39.5633 36.4613C39.5505 35.2577 39.9916 34.0534 40.9089 33.1362L40.2018 32.429C39.0825 33.5483 38.5479 35.0167 38.5634 36.4719L39.5633 36.4613ZM40.9089 33.1362C41.8621 32.1829 43.1296 31.7529 44.3887 31.8043L44.4294 30.8052C42.9166 30.7434 41.3698 31.261 40.2018 32.429L40.9089 33.1362ZM44.9091 31.3047L44.909 6.3387L43.909 6.33871L43.9091 31.3047L44.9091 31.3047ZM44.3861 5.83923C43.1239 5.89689 41.8635 5.46197 40.9088 4.50729L40.2017 5.2144C41.3683 6.38104 42.908 6.9078 44.4318 6.83819L44.3861 5.83923ZM40.9088 4.50729C39.9555 3.55403 39.5256 2.28652 39.577 1.02751L38.5778 0.98673C38.5161 2.49958 39.0336 4.04635 40.2017 5.2144L40.9088 4.50729ZM39.0773 0.50712L6.16857 0.51245L6.16873 1.51245L39.0775 1.50712L39.0773 0.50712ZM5.66906 1.03284C5.72045 2.29185 5.2905 3.55935 4.33723 4.51262L5.04434 5.21973C6.21239 4.05168 6.72998 2.50491 6.66823 0.99206L5.66906 1.03284Z" fill="url(#paint0_linear)"/>
<defs>
<linearGradient id="paint0_linear" x1="195.803" y1="33.9271" x2="143.296" y2="-18.58" gradientUnits="userSpaceOnUse">
<stop stop-color="#232322"/>
<stop offset="0.9896" stop-color="#DBDBDB"/>
</linearGradient>
</defs>
</svg>
