<svg width="46" height="37" viewBox="0 0 46 37" fill="none" xmlns="http://www.w3.org/2000/svg">
<path d="M29 8L17 19L29 30" stroke="white"/>
<path d="M44.4024 31.1139L44.3971 31.6139L44.9022 31.6192L44.9024 31.114L44.4024 31.1139ZM44.4095 6.17601L44.9095 6.17615L44.9096 5.67066L44.4042 5.67604L44.4095 6.17601ZM39.2335 1L39.7334 1.00532L39.7388 0.499998L39.2335 0.5V1ZM6.3457 1.00012L6.3457 0.500124L5.84036 0.500126L5.84573 1.00544L6.3457 1.00012ZM1 6.16198L1.02039 5.66239L0.500004 5.64115L0.500004 6.16198L1 6.16198ZM0.999985 31.1352H0.499985L0.499985 31.6586L1.0228 31.6347L0.999985 31.1352ZM6.33157 36.4668L5.83199 36.4464L5.81074 36.9669L6.33168 36.9668L6.33157 36.4668ZM39.2405 36.4596L39.2406 36.9596L39.7613 36.9595L39.7401 36.4392L39.2405 36.4596ZM44.9024 31.1086L44.8971 31.6086C45.0306 31.61 45.1591 31.558 45.2541 31.4641C45.349 31.3702 45.4024 31.2423 45.4024 31.1088L44.9024 31.1086ZM44.9095 6.17782L45.4095 6.17796C45.4095 6.0444 45.3561 5.91638 45.2612 5.82244C45.1662 5.72849 45.0377 5.67642 44.9041 5.67784L44.9095 6.17782ZM39.7334 1.00178L40.2334 1.0071C40.2348 0.87358 40.1828 0.745041 40.0888 0.650121C39.9949 0.5552 39.867 0.501786 39.7334 0.50178L39.7334 1.00178ZM6.84583 1.0002L6.84585 0.500201C6.71232 0.500194 6.58433 0.553603 6.49041 0.648524C6.39649 0.743446 6.34444 0.871993 6.34586 1.00552L6.84583 1.0002ZM1.50013 6.16205L1.52052 5.66247C1.38449 5.65692 1.25207 5.70708 1.15386 5.80136C1.05565 5.89565 1.00013 6.02591 1.00013 6.16206L1.50013 6.16205ZM1.50021 31.1281L1.00021 31.1281C1.00021 31.2647 1.05608 31.3953 1.15482 31.4896C1.25357 31.584 1.38661 31.6338 1.52303 31.6276L1.50021 31.1281ZM6.8318 36.4597L6.33222 36.4393C6.32666 36.5753 6.37683 36.7078 6.47114 36.806C6.56544 36.9042 6.69572 36.9597 6.83188 36.9597L6.8318 36.4597ZM39.7405 36.4543L39.7406 36.9543C39.8767 36.9543 40.007 36.8988 40.1013 36.8006C40.1955 36.7024 40.2457 36.57 40.2401 36.434L39.7405 36.4543ZM41.0719 32.9594C41.9891 32.0422 43.1935 31.6011 44.3971 31.6139L44.4077 30.6139C42.9525 30.5984 41.484 31.1331 40.3648 32.2523L41.0719 32.9594ZM44.9024 31.114L44.9095 6.17615L43.9095 6.17587L43.9024 31.1137L44.9024 31.114ZM44.4042 5.67604C43.2006 5.68884 41.9963 5.24772 41.079 4.33048L40.3719 5.03758C41.4912 6.15681 42.9596 6.69146 44.4148 6.67598L44.4042 5.67604ZM41.079 4.33048C40.1618 3.41323 39.7206 2.20884 39.7334 1.00532L38.7335 0.994681C38.718 2.44988 39.2527 3.91836 40.3719 5.03758L41.079 4.33048ZM39.2335 0.5L6.3457 0.500124L6.34571 1.50012L39.2335 1.5V0.5ZM5.84573 1.00544C5.85854 2.20897 5.4174 3.41335 4.50016 4.33059L5.20727 5.0377C6.3265 3.91847 6.86116 2.45 6.84568 0.994805L5.84573 1.00544ZM4.50016 4.33059C3.5469 5.28386 2.27941 5.71378 1.02039 5.66239L0.979612 6.66156C2.49246 6.72331 4.03922 6.20575 5.20727 5.0377L4.50016 4.33059ZM0.500004 6.16198L0.499985 31.1352H1.49999L1.5 6.16198L0.500004 6.16198ZM1.0228 31.6347C2.28503 31.577 3.54548 32.012 4.50016 32.9666L5.20727 32.2595C4.04062 31.0929 2.50094 30.5661 0.977166 30.6357L1.0228 31.6347ZM4.50016 32.9666C5.45343 33.9199 5.88337 35.1874 5.83199 36.4464L6.83115 36.4872C6.8929 34.9744 6.37532 33.4276 5.20727 32.2595L4.50016 32.9666ZM6.33168 36.9668L39.2406 36.9596L39.2404 35.9596L6.33146 35.9668L6.33168 36.9668ZM39.7401 36.4392C39.6887 35.1802 40.1186 33.9127 41.0719 32.9594L40.3648 32.2523C39.1967 33.4204 38.6792 34.9672 38.7409 36.48L39.7401 36.4392ZM41.572 32.9542C42.4892 32.0369 43.6936 31.5958 44.8971 31.6086L44.9078 30.6087C43.4526 30.5932 41.9841 31.1278 40.8648 32.2471L41.572 32.9542ZM45.4024 31.1088L45.4095 6.17796L44.4095 6.17768L44.4024 31.1085L45.4024 31.1088ZM44.9041 5.67784C43.7006 5.69065 42.4962 5.2495 41.579 4.33226L40.8719 5.03937C41.9911 6.15859 43.4596 6.69327 44.9148 6.67779L44.9041 5.67784ZM41.579 4.33226C40.6617 3.41502 40.2206 2.21062 40.2334 1.0071L39.2334 0.996461C39.218 2.45166 39.7526 3.92014 40.8719 5.03937L41.579 4.33226ZM39.7334 0.50178L6.84585 0.500201L6.8458 1.5002L39.7334 1.50178L39.7334 0.50178ZM6.34586 1.00552C6.35866 2.20905 5.91755 3.41341 5.00031 4.33064L5.70742 5.03775C6.82665 3.91852 7.36128 2.45007 7.3458 0.994882L6.34586 1.00552ZM5.00031 4.33064C4.04704 5.28391 2.77953 5.71386 1.52052 5.66247L1.47974 6.66164C2.99258 6.72339 4.53937 6.2058 5.70742 5.03775L5.00031 4.33064ZM1.00013 6.16206L1.00021 31.1281L2.00021 31.1281L2.00013 6.16205L1.00013 6.16206ZM1.52303 31.6276C2.78526 31.5699 4.04571 32.0048 5.00039 32.9595L5.70749 32.2524C4.54085 31.0858 3.00117 30.559 1.4774 30.6286L1.52303 31.6276ZM5.00039 32.9595C5.95366 33.9128 6.3836 35.1803 6.33222 36.4393L7.33138 36.4801C7.39313 34.9672 6.87554 33.4204 5.70749 32.2524L5.00039 32.9595ZM6.83188 36.9597L39.7406 36.9543L39.7405 35.9543L6.83172 35.9597L6.83188 36.9597ZM40.2401 36.434C40.1887 35.1749 40.6187 33.9074 41.572 32.9542L40.8648 32.2471C39.6968 33.4151 39.1792 34.9619 39.241 36.4747L40.2401 36.434Z" fill="url(#paint0_linear)"/>
<defs>
<linearGradient id="paint0_linear" x1="-149.894" y1="3.53975" x2="-97.3866" y2="56.0468" gradientUnits="userSpaceOnUse">
<stop stop-color="#232322"/>
<stop offset="0.9896" stop-color="#DBDBDB"/>
</linearGradient>
</defs>
</svg>
